<?xml version="1.0" encoding="UTF-8" standalone="no"?><!DOCTYPE svg PUBLIC "-//W3C//DTD SVG 1.1//EN" "http://www.w3.org/Graphics/SVG/1.1/DTD/svg11.dtd"><svg width="100%" height="100%" viewBox="0 0 341 137" version="1.1" xmlns="http://www.w3.org/2000/svg" xmlns:xlink="http://www.w3.org/1999/xlink" xml:space="preserve" style="fill-rule:evenodd;clip-rule:evenodd;stroke-linejoin:round;stroke-miterlimit:1.41421;"><g id="Layer-1"><path d="M60.741,37.997c0,2.513 0.776,4.843 2.097,6.769c-2.996,3.364 -6.617,7.675 -10.405,12.955c-2.487,3.492 -5.051,7.4 -7.374,11.849c-2.294,4.453 -4.461,9.436 -5.401,15.269c-0.45,2.906 -0.557,6.062 0.099,9.288c0.609,3.22 2.349,7.093 4.377,9.823c2.919,3.929 8.414,6.749 13.575,7.295c7.862,0.83 14.827,-2.42 21.831,-5.711c4.973,-2.336 9.839,-4.224 14.531,-5.685c4.681,-1.484 9.226,-2.456 13.532,-2.835c4.307,-0.387 8.363,-0.179 12.05,0.414c3.309,0.546 6.316,1.301 8.982,2.241c0.606,6.767 6.286,12.072 13.209,12.072c7.329,0 13.271,-5.941 13.271,-13.27c0,-7.328 -5.942,-13.271 -13.271,-13.271c-3.096,0 -5.94,1.071 -8.196,2.849c-0.053,-0.016 -0.102,-0.03 -0.156,-0.047c-3.537,-1.147 -7.708,-2.028 -12.302,-2.554c-4.597,-0.514 -9.667,-0.524 -14.883,0.199c-5.216,0.707 -10.546,2.134 -15.743,4.059c-5.212,1.901 -10.255,4.365 -15.182,6.762c-2.465,1.208 -9.624,4.795 -14.206,5.316c-3.303,0.375 -6.531,-0.601 -8.322,-1.86c-2.095,-1.474 -4.345,-4.099 -5.267,-7.534c-0.545,-2.024 -0.593,-4.276 -0.351,-6.538c0.496,-4.55 2.142,-9.083 4.044,-13.213c1.92,-4.146 4.157,-7.947 6.362,-11.373c3.318,-5.117 6.573,-9.403 9.297,-12.774c1.717,0.949 3.689,1.492 5.788,1.492c6.621,0 11.986,-5.367 11.986,-11.987c0,-6.619 -5.365,-11.986 -11.986,-11.986c-6.619,0 -11.986,5.367 -11.986,11.986Z" style="fill:url(#_Linear1);fill-rule:nonzero;"/><path d="M113.772,41.196l-3.409,-11.542l-3.368,11.542l6.777,0Zm8.172,10.379l-4.027,0c-0.697,0 -1.163,-0.31 -1.356,-1.006l-1.317,-4.455l-9.682,0l-1.317,4.455c-0.195,0.696 -0.698,1.006 -1.356,1.006l-3.99,0c-0.852,0 -1.277,-0.503 -0.967,-1.394l8.443,-24.71c0.232,-0.659 0.659,-1.008 1.355,-1.008l5.307,0c0.696,0 1.162,0.349 1.394,1.008l8.521,24.71c0.271,0.891 -0.156,1.394 -1.008,1.394" style="fill:#010303;fill-rule:nonzero;"/><path d="M144.264,33.332c0,-2.362 -1.666,-3.834 -4.222,-3.834l-3.757,0l0,7.746l3.757,0c2.556,0 4.222,-1.51 4.222,-3.912m6.468,0c0,5.461 -3.873,8.948 -10.031,8.948l-4.416,0l0,8.094c0,0.775 -0.464,1.201 -1.201,1.201l-3.795,0c-0.775,0 -1.2,-0.426 -1.2,-1.201l0,-24.71c0,-0.775 0.425,-1.202 1.2,-1.202l9.412,0c6.158,0 10.031,3.41 10.031,8.87" style="fill:#010303;fill-rule:nonzero;"/><path d="M163.915,37.941c0,5.384 2.479,8.754 6.352,8.754c3.911,0 6.352,-3.37 6.352,-8.754c0,-5.383 -2.441,-8.714 -6.352,-8.714c-3.912,0 -6.352,3.37 -6.352,8.714m19.21,0c0,8.637 -4.957,14.137 -12.858,14.137c-7.902,0 -12.859,-5.5 -12.859,-14.137c0,-8.675 4.957,-14.097 12.859,-14.097c7.901,0 12.858,5.422 12.858,14.097" style="fill:#010303;fill-rule:nonzero;"/><path d="M208.29,47.314l0,3.06c0,0.775 -0.425,1.201 -1.2,1.201l-14.215,0c-0.774,0 -1.2,-0.426 -1.2,-1.201l0,-24.71c0,-0.775 0.426,-1.202 1.2,-1.202l3.795,0c0.737,0 1.202,0.427 1.202,1.202l0,20.45l9.218,0c0.775,0 1.2,0.464 1.2,1.2" style="fill:#010303;fill-rule:nonzero;"/><path d="M231.96,47.314l0,3.06c0,0.775 -0.426,1.201 -1.2,1.201l-14.215,0c-0.774,0 -1.2,-0.426 -1.2,-1.201l0,-24.71c0,-0.775 0.426,-1.202 1.2,-1.202l3.795,0c0.737,0 1.202,0.427 1.202,1.202l0,20.45l9.218,0c0.774,0 1.2,0.464 1.2,1.2" style="fill:#010303;fill-rule:nonzero;"/><path d="M244.011,37.941c0,5.384 2.479,8.754 6.352,8.754c3.911,0 6.352,-3.37 6.352,-8.754c0,-5.383 -2.441,-8.714 -6.352,-8.714c-3.912,0 -6.352,3.37 -6.352,8.714m19.21,0c0,8.637 -4.957,14.137 -12.858,14.137c-7.902,0 -12.859,-5.5 -12.859,-14.137c0,-8.675 4.957,-14.097 12.859,-14.097c7.901,0 12.858,5.422 12.858,14.097" style="fill:#010303;fill-rule:nonzero;"/><path d="M185.196,103.505c0,-2.169 -1.588,-3.487 -4.105,-3.487l-3.835,0l0,6.895l4.106,0c2.363,0 3.834,-1.317 3.834,-3.408m-3.989,-14.137l-3.951,0l0,5.887l3.795,0c2.093,0 3.371,-1.162 3.371,-2.982c0,-1.821 -1.239,-2.905 -3.215,-2.905m10.457,14.795c0,4.648 -3.834,7.552 -9.915,7.552l-9.489,0c-0.774,0 -1.2,-0.425 -1.2,-1.2l0,-24.711c0,-0.774 0.426,-1.2 1.2,-1.2l9.024,0c5.772,0 9.373,2.672 9.373,6.856c0,2.826 -1.704,5.034 -4.416,5.925c3.37,0.697 5.423,3.253 5.423,6.778" style="fill:#010303;fill-rule:nonzero;"/><path d="M219.586,86.037l-8.326,16.113l0,8.365c0,0.775 -0.427,1.201 -1.201,1.201l-3.796,0c-0.735,0 -1.201,-0.426 -1.201,-1.201l0,-8.365l-8.288,-16.113c-0.426,-0.852 -0.077,-1.433 0.852,-1.433l4.144,0c0.659,0 1.162,0.271 1.434,0.891l5.111,10.109l5.152,-10.109c0.271,-0.62 0.775,-0.891 1.433,-0.891l3.835,0c0.929,0 1.278,0.581 0.851,1.433" style="fill:#010303;fill-rule:nonzero;"/><path d="M247.805,85.804l0,3.06c0,0.735 -0.464,1.201 -1.2,1.201l-6.779,0l0,20.449c0,0.776 -0.464,1.201 -1.238,1.201l-3.758,0c-0.775,0 -1.2,-0.425 -1.2,-1.201l0,-20.449l-6.818,0c-0.774,0 -1.199,-0.466 -1.199,-1.201l0,-3.06c0,-0.774 0.425,-1.201 1.199,-1.201l19.793,0c0.736,0 1.2,0.427 1.2,1.201" style="fill:#010303;fill-rule:nonzero;"/><path d="M272.83,107.455l0,3.06c0,0.775 -0.426,1.201 -1.2,1.201l-15.531,0c-0.775,0 -1.201,-0.426 -1.201,-1.201l0,-24.71c0,-0.775 0.426,-1.201 1.201,-1.201l15.26,0c0.774,0 1.239,0.426 1.239,1.201l0,3.06c0,0.735 -0.465,1.201 -1.239,1.201l-10.264,0l0,5.189l8.172,0c0.775,0 1.201,0.426 1.201,1.2l0,3.061c0,0.774 -0.426,1.2 -1.201,1.2l-8.172,0l0,5.539l10.535,0c0.774,0 1.2,0.465 1.2,1.2" style="fill:#010303;fill-rule:nonzero;"/><path d="M280.182,103.892l3.834,-0.658c0.737,-0.116 1.163,0.193 1.511,0.852c0.891,2.053 2.673,3.137 5.229,3.137c2.401,0 3.834,-0.968 3.834,-2.711c0,-5.383 -14.64,-2.943 -14.64,-12.433c0,-5.422 4.454,-8.055 9.993,-8.055c5.461,0 8.83,2.672 10.07,6.389c0.232,0.776 -0.155,1.279 -0.968,1.434l-3.796,0.62c-0.697,0.115 -1.162,-0.194 -1.472,-0.852c-0.736,-1.627 -2.13,-2.634 -4.028,-2.634c-2.246,0 -3.564,1.239 -3.564,2.711c0,4.841 14.679,2.673 14.679,12.2c0,5.113 -3.911,8.327 -10.03,8.327c-6.197,0 -10.149,-2.904 -11.542,-6.894c-0.272,-0.774 0.116,-1.278 0.89,-1.433" style="fill:#010303;fill-rule:nonzero;"/></g><defs><linearGradient id="_Linear1" x1="0" y1="0" x2="1" y2="0" gradientUnits="userSpaceOnUse" gradientTransform="matrix(118.745,0,0,-118.745,36.37,68.8759)"><stop offset="0" style="stop-color:#33378d;stop-opacity:1"/><stop offset="1" style="stop-color:#894292;stop-opacity:1"/></linearGradient></defs></svg>